<svg width="24" height="24" viewBox="0 0 24 24" fill="none" xmlns="http://www.w3.org/2000/svg">
<path d="M5.9816 11.2463C5.89458 13.9688 9.10268 17.3244 12.1106 18.3793M5.9816 11.2463C5.67704 11.769 2.56624 14.2628 2.51185 15.3191C2.24828 17.4169 5.81234 21.3579 8.56037 21.4925C9.58659 21.6381 11.01 19.9112 12.4529 18.6282C13.2476 17.9215 14.3929 17.758 18.9773 16.6204C20.6409 16.3312 22.6395 13.4616 19.6767 11.0292M5.9816 11.2463C6.90982 9.04512 8.5145 4.78982 11.6615 3.1094C12.9395 2.38327 16.2589 1.7147 19.5115 4.80689C20.6305 5.74799 22.5702 7.80946 20.7648 10.1846C19.5611 11.5874 17.7411 11.1813 17.5643 13.6074" stroke="white" stroke-width="2" stroke-linecap="round" stroke-linejoin="round"/>
</svg>
