<svg width="24" height="24" viewBox="0 0 24 24" fill="none" xmlns="http://www.w3.org/2000/svg">
<path d="M7.73438 13.7321C7.73438 13.7321 8.63984 12.51 9.23438 12.2316C11.0292 11.3913 11.3943 11.0261 12.2344 9.2307C12.5127 8.63597 13.7344 7.73022 13.7344 7.73022M10.2344 16.2329C10.2344 16.2329 11.4561 15.3271 11.7344 14.7324C12.5745 12.9371 12.9396 12.5719 14.7344 11.7315C15.3289 11.4531 16.2344 10.231 16.2344 10.231" stroke="white" stroke-width="2" stroke-linecap="round" stroke-linejoin="round"/>
<path d="M14.431 2.89259C14.9379 2.38395 15.761 2.38264 16.2695 2.88968L21.0813 7.68778C21.5898 8.19482 21.5911 9.01819 21.0842 9.52684L19.5556 11.0608C19.0487 11.5694 18.2256 11.5707 17.7171 11.0637L12.9053 6.26559C12.3969 5.75855 12.3956 4.93518 12.9024 4.42653L14.431 2.89259Z" stroke="white" stroke-width="2"/>
<path d="M4.41377 12.9026C4.92065 12.394 5.74376 12.3927 6.25225 12.8997L11.0641 17.6978C11.5725 18.2049 11.5738 19.0282 11.067 19.5369L9.53836 21.0708C9.03148 21.5795 8.20837 21.5808 7.69988 21.0737L2.88808 16.2756C2.37959 15.7686 2.37829 14.9452 2.88517 14.4366L4.41377 12.9026Z" stroke="white" stroke-width="2"/>
<path d="M17.9377 3.45251C19.8201 0.985436 23.14 3.84007 20.5431 6.02869M3.37811 17.9773C0.998474 19.9687 3.99782 23.1586 6.06742 20.4656" stroke="white" stroke-width="2" stroke-linecap="round" stroke-linejoin="round"/>
</svg>
