<svg width="36" height="37" viewBox="0 0 36 37" fill="none" xmlns="http://www.w3.org/2000/svg">
<path fill-rule="evenodd" clip-rule="evenodd" d="M9.27273 15.9999C7.80609 15.9999 7.5 16.2878 7.5 17.6666V20.1667C7.5 21.5456 7.80609 21.8333 9.27273 21.8333H12.8182V31.8334C12.8182 33.2122 13.1243 33.5 14.5909 33.5H18.1364C19.6031 33.5 19.9091 33.2122 19.9091 31.8334V21.8333H23.89C25.0024 21.8333 25.2891 21.63 25.5947 20.6246L26.3544 18.1245C26.8777 16.4021 26.5553 15.9999 24.6498 15.9999H19.9091V11.8333C19.9091 10.9129 20.7027 10.1667 21.6818 10.1667H26.7273C28.1938 10.1667 28.5 9.87889 28.5 8.5V5.16666C28.5 3.78777 28.1938 3.5 26.7273 3.5H21.6818C16.7865 3.5 12.8182 7.23097 12.8182 11.8333V15.9999H9.27273Z" stroke="black" stroke-width="3" stroke-linejoin="round"/>
</svg>
