<svg width="120" height="20" viewBox="0 0 120 20" fill="none" xmlns="http://www.w3.org/2000/svg">
<g opacity="0.8">
<path d="M11.7276 1.44418L13.4874 4.99288C13.7274 5.48687 14.3673 5.9607 14.9073 6.05143L18.0969 6.58575C20.1367 6.92853 20.6167 8.4206 19.1468 9.8925L16.6671 12.3927C16.2471 12.8161 16.0172 13.6327 16.1471 14.2175L16.8571 17.3125C17.417 19.7623 16.1271 20.71 13.9774 19.4296L10.9877 17.6452C10.4478 17.3226 9.5579 17.3226 9.0079 17.6452L6.01827 19.4296C3.8785 20.71 2.57865 19.7522 3.13859 17.3125L3.84851 14.2175C3.97849 13.6327 3.74852 12.8161 3.32856 12.3927L0.848839 9.8925C-0.611001 8.4206 -0.14105 6.92853 1.89872 6.58575L5.08837 6.05143C5.61831 5.9607 6.25824 5.48687 6.49821 4.99288L8.258 1.44418C9.2179 -0.481393 10.7777 -0.481393 11.7276 1.44418Z" fill="black"/>
<path d="M36.7276 1.44418L38.4874 4.99288C38.7274 5.48687 39.3673 5.9607 39.9073 6.05143L43.0969 6.58575C45.1367 6.92853 45.6167 8.4206 44.1468 9.8925L41.6671 12.3927C41.2471 12.8161 41.0172 13.6327 41.1471 14.2175L41.8571 17.3125C42.417 19.7623 41.1271 20.71 38.9774 19.4296L35.9877 17.6452C35.4478 17.3226 34.5579 17.3226 34.0079 17.6452L31.0183 19.4296C28.8785 20.71 27.5786 19.7522 28.1386 17.3125L28.8485 14.2175C28.9785 13.6327 28.7485 12.8161 28.3286 12.3927L25.8488 9.8925C24.389 8.4206 24.8589 6.92853 26.8987 6.58575L30.0884 6.05143C30.6183 5.9607 31.2582 5.48687 31.4982 4.99288L33.258 1.44418C34.2179 -0.481393 35.7777 -0.481393 36.7276 1.44418Z" fill="black"/>
<path opacity="0.2" d="M61.7276 1.44418L63.4874 4.99288C63.7274 5.48687 64.3673 5.9607 64.9073 6.05143L68.0969 6.58575C70.1367 6.92853 70.6167 8.4206 69.1468 9.8925L66.6671 12.3927C66.2471 12.8161 66.0172 13.6327 66.1471 14.2175L66.8571 17.3125C67.417 19.7623 66.1271 20.71 63.9774 19.4296L60.9877 17.6452C60.4478 17.3226 59.5579 17.3226 59.0079 17.6452L56.0183 19.4296C53.8785 20.71 52.5786 19.7522 53.1386 17.3125L53.8485 14.2175C53.9785 13.6327 53.7485 12.8161 53.3286 12.3927L50.8488 9.8925C49.389 8.4206 49.8589 6.92853 51.8987 6.58575L55.0884 6.05143C55.6183 5.9607 56.2582 5.48687 56.4982 4.99288L58.258 1.44418C59.2179 -0.481393 60.7777 -0.481393 61.7276 1.44418Z" fill="black"/>
<path opacity="0.2" d="M86.7276 1.44418L88.4874 4.99288C88.7274 5.48687 89.3673 5.9607 89.9073 6.05143L93.0969 6.58575C95.1367 6.92853 95.6167 8.4206 94.1468 9.8925L91.6671 12.3927C91.2471 12.8161 91.0172 13.6327 91.1471 14.2175L91.8571 17.3125C92.417 19.7623 91.1271 20.71 88.9774 19.4296L85.9877 17.6452C85.4478 17.3226 84.5579 17.3226 84.0079 17.6452L81.0183 19.4296C78.8785 20.71 77.5786 19.7522 78.1386 17.3125L78.8485 14.2175C78.9785 13.6327 78.7485 12.8161 78.3286 12.3927L75.8488 9.8925C74.389 8.4206 74.8589 6.92853 76.8987 6.58575L80.0884 6.05143C80.6183 5.9607 81.2582 5.48687 81.4982 4.99288L83.258 1.44418C84.2179 -0.481393 85.7777 -0.481393 86.7276 1.44418Z" fill="black"/>
<path opacity="0.2" d="M111.728 1.44418L113.487 4.99288C113.727 5.48687 114.367 5.9607 114.907 6.05143L118.097 6.58575C120.137 6.92853 120.617 8.4206 119.147 9.8925L116.667 12.3927C116.247 12.8161 116.017 13.6327 116.147 14.2175L116.857 17.3125C117.417 19.7623 116.127 20.71 113.977 19.4296L110.988 17.6452C110.448 17.3226 109.558 17.3226 109.008 17.6452L106.018 19.4296C103.878 20.71 102.579 19.7522 103.139 17.3125L103.849 14.2175C103.978 13.6327 103.749 12.8161 103.329 12.3927L100.849 9.8925C99.389 8.4206 99.8589 6.92853 101.899 6.58575L105.088 6.05143C105.618 5.9607 106.258 5.48687 106.498 4.99288L108.258 1.44418C109.218 -0.481393 110.778 -0.481393 111.728 1.44418Z" fill="black"/>
</g>
</svg>
