<svg width="36" height="37" viewBox="0 0 36 37" fill="none" xmlns="http://www.w3.org/2000/svg">
<path d="M15 31.3512C9.85714 33.0872 5.57144 31.3513 3 26" stroke="black" stroke-width="3" stroke-linecap="round" stroke-linejoin="round"/>
<path d="M15 33.5V28.6368C15 27.7394 15.2759 26.9594 15.7206 26.2548C16.0257 25.7714 15.8168 25.0856 15.2657 24.9341C10.7009 23.6792 7.5 21.6615 7.5 14.9691C7.5 13.2292 8.07008 11.5933 9.07217 10.1696C9.32156 9.81527 9.44624 9.63812 9.47622 9.47765C9.50619 9.31719 9.45408 9.10778 9.34983 8.68898C8.92557 6.98438 8.95306 5.17428 9.58983 3.54234C9.58983 3.54234 10.9056 3.11363 13.9005 4.98453C14.5842 5.4117 14.9261 5.62529 15.2272 5.67306C15.5283 5.72084 15.9309 5.62076 16.7359 5.42061C17.837 5.14692 18.9714 5 20.25 5C21.5286 5 22.663 5.14692 23.7641 5.42061C24.5691 5.62076 24.9717 5.72084 25.2727 5.67306C25.5739 5.62529 25.9158 5.4117 26.5995 4.98453C29.5944 3.11363 30.9102 3.54234 30.9102 3.54234C31.547 5.17428 31.5744 6.98438 31.1502 8.68898C31.0459 9.10778 30.9938 9.31719 31.0238 9.47765C31.0538 9.6381 31.1784 9.81528 31.4279 10.1696C32.4299 11.5933 33 13.2292 33 14.9691C33 21.6615 29.7992 23.6792 25.2344 24.9341C24.6833 25.0856 24.4743 25.7714 24.7794 26.2548C25.2241 26.9594 25.5 27.7394 25.5 28.6368V33.5" stroke="black" stroke-width="3" stroke-linecap="round" stroke-linejoin="round"/>
</svg>
