<svg width="36" height="37" viewBox="0 0 36 37" fill="none" xmlns="http://www.w3.org/2000/svg">
<path d="M3.75 18.5C3.75 11.7825 3.75 8.42373 5.83686 6.33686C7.92373 4.25 11.2825 4.25 18 4.25C24.7175 4.25 28.0763 4.25 30.1632 6.33686C32.25 8.42373 32.25 11.7825 32.25 18.5C32.25 25.2175 32.25 28.5763 30.1632 30.6632C28.0763 32.75 24.7175 32.75 18 32.75C11.2825 32.75 7.92373 32.75 5.83686 30.6632C3.75 28.5763 3.75 25.2175 3.75 18.5Z" stroke="black" stroke-width="3" stroke-linejoin="round"/>
<path d="M24.75 18.5C24.75 22.228 21.728 25.25 18 25.25C14.2721 25.25 11.25 22.228 11.25 18.5C11.25 14.7721 14.2721 11.75 18 11.75C21.728 11.75 24.75 14.7721 24.75 18.5Z" stroke="black" stroke-width="3"/>
<path d="M26.2596 10.25H26.2461" stroke="black" stroke-width="3" stroke-linecap="round" stroke-linejoin="round"/>
</svg>
