<svg width="36" height="37" viewBox="0 0 36 37" fill="none" xmlns="http://www.w3.org/2000/svg">
<path d="M6.75 14.75H6C4.58579 14.75 3.87869 14.75 3.43934 15.1893C3 15.6287 3 16.3358 3 17.75V30.5C3 31.9142 3 32.6213 3.43934 33.0606C3.87869 33.5 4.58579 33.5 6 33.5H6.75C8.16421 33.5 8.87131 33.5 9.31066 33.0606C9.75 32.6213 9.75 31.9142 9.75 30.5V17.75C9.75 16.3358 9.75 15.6287 9.31066 15.1893C8.87131 14.75 8.16421 14.75 6.75 14.75Z" stroke="black" stroke-width="3"/>
<path d="M9.75 6.875C9.75 8.73896 8.23896 10.25 6.375 10.25C4.51104 10.25 3 8.73896 3 6.875C3 5.01104 4.51104 3.5 6.375 3.5C8.23896 3.5 9.75 5.01104 9.75 6.875Z" stroke="black" stroke-width="3"/>
<path d="M18.489 14.75H17.25C15.8358 14.75 15.1287 14.75 14.6893 15.1893C14.25 15.6287 14.25 16.3358 14.25 17.75V30.5C14.25 31.9142 14.25 32.6213 14.6893 33.0606C15.1287 33.5 15.8358 33.5 17.25 33.5H18C19.4142 33.5 20.1213 33.5 20.5606 33.0606C21 32.6213 21 31.9142 21 30.5L21.0002 25.2501C21.0002 22.7649 21.7922 20.7502 24.1319 20.7502C25.3016 20.7502 26.25 21.7576 26.25 23.0002V29.7501C26.25 31.1643 26.25 31.8714 26.6894 32.3108C27.1286 32.7501 27.8358 32.7501 29.25 32.7501H29.998C31.4119 32.7501 32.1189 32.7502 32.5582 32.311C32.9976 31.8718 32.9977 31.1648 32.998 29.7509L33.0001 21.5003C33.0001 17.7725 29.4546 14.7504 25.9452 14.7504C23.9474 14.7504 22.1651 15.7296 21.0002 17.261C21 16.3158 21 15.8433 20.7948 15.4925C20.6648 15.2703 20.4797 15.0853 20.2575 14.9553C19.9067 14.75 19.4342 14.75 18.489 14.75Z" stroke="black" stroke-width="3" stroke-linejoin="round"/>
</svg>
