<svg width="30" height="30" viewBox="0 0 30 30" fill="none" xmlns="http://www.w3.org/2000/svg">
<path d="M15 27.5C21.9036 27.5 27.5 21.9036 27.5 15C27.5 8.09644 21.9036 2.5 15 2.5C8.09644 2.5 2.5 8.09644 2.5 15C2.5 21.9036 8.09644 27.5 15 27.5Z" stroke="black" stroke-width="2.5"/>
<path d="M19.3164 15.4935C19.127 16.2769 18.2321 16.8305 16.4424 17.9377C14.7121 19.008 13.8471 19.5432 13.1499 19.3281C12.8616 19.2391 12.5991 19.0702 12.3873 18.8375C11.875 18.2747 11.875 17.1831 11.875 15C11.875 12.8169 11.875 11.7252 12.3873 11.1624C12.5991 10.9298 12.8616 10.7608 13.1499 10.6719C13.8471 10.4568 14.7121 10.992 16.4424 12.0623C18.2321 13.1695 19.127 13.7231 19.3164 14.5065C19.3945 14.8299 19.3945 15.1701 19.3164 15.4935Z" stroke="black" stroke-width="2.5" stroke-linejoin="round"/>
</svg>
