<svg width="45" height="21" viewBox="0 0 45 21" fill="none" xmlns="http://www.w3.org/2000/svg">
<path d="M33.8454 14.2356C33.8455 14.9001 33.8455 15.5379 33.8455 16.1961C33.2656 16.1961 32.6947 16.1961 32.1073 16.1961C32.1073 14.7234 32.1073 13.2617 32.1073 11.7626C32.2045 11.7626 32.3013 11.7627 32.3981 11.7626C33.636 11.7625 34.8739 11.7643 36.1117 11.761C36.4472 11.7601 36.6059 11.6181 36.6225 11.3277C36.6413 10.9978 36.4729 10.8318 36.0946 10.8311C34.8659 10.8288 33.6372 10.8321 32.4085 10.8332C32.3105 10.8333 32.2125 10.8332 32.1022 10.8332C32.1022 10.2407 32.1022 9.67695 32.1022 9.10202C32.1322 9.09299 32.1655 9.0741 32.1988 9.07421C33.5191 9.07855 34.8394 9.08336 36.1597 9.09203C36.3243 9.09311 36.4904 9.10521 36.6529 9.13008C37.9495 9.3285 38.6196 10.286 38.3923 11.5941C38.2576 12.3693 37.8147 12.8963 37.089 13.2079C37.0061 13.2435 36.9223 13.2767 36.8048 13.325C37.4178 14.2862 38.0213 15.2326 38.6481 16.2154C38.156 16.2154 37.6885 16.168 37.2354 16.227C36.6298 16.3059 36.2908 16.0836 36.0242 15.5578C35.6907 14.9002 35.2639 14.2885 34.8884 13.6507C34.7956 13.4932 34.6972 13.4196 34.5015 13.4296C33.8925 13.4606 33.8283 13.2848 33.8444 14.0739C33.8454 14.1189 33.845 14.1639 33.8454 14.2356Z" fill="black"/>
<path d="M26.8314 9.08101C27.0756 9.04525 27.0605 9.1896 27.0604 9.32997C27.0594 10.8491 27.0599 12.3683 27.0604 13.8875C27.0605 13.9863 27.0628 14.0852 27.0659 14.184C27.0728 14.4044 27.1883 14.5075 27.4144 14.5069C28.0378 14.5052 28.6612 14.505 29.2845 14.5118C29.483 14.5139 29.5694 14.418 29.5844 14.2397C29.5911 14.1593 29.5885 14.0781 29.5882 13.9972C29.584 12.4511 29.5795 10.905 29.575 9.35885C29.5748 9.27137 29.575 9.18388 29.575 9.08284C30.1861 9.08284 30.7686 9.08284 31.3654 9.08284C31.3706 9.15881 31.3797 9.2288 31.3797 9.29879C31.3788 10.9528 31.379 12.6068 31.3731 14.2608C31.3722 14.4937 31.3515 14.7278 31.3209 14.959C31.2135 15.7697 30.839 16.186 30.0087 16.213C28.8484 16.2507 27.683 16.2281 26.5235 16.1647C25.7824 16.1241 25.4395 15.7481 25.3122 15.0249C25.2687 14.7779 25.2404 14.525 25.2395 14.2747C25.2333 12.5582 25.2362 10.8417 25.2362 9.08105C25.751 9.08105 26.2786 9.08105 26.8314 9.08101Z" fill="black"/>
<path d="M43.2066 10.7266C43.2066 10.1698 43.2066 9.63999 43.2066 9.09082C43.7978 9.09082 44.3794 9.09082 44.9813 9.09082C44.9875 9.16814 44.999 9.24548 44.999 9.32283C44.9993 10.9765 45.0031 12.6303 44.9934 14.2839C44.9916 14.5967 44.9584 14.9134 44.8989 15.2207C44.7945 15.76 44.4686 16.1403 43.8944 16.1729C42.8809 16.2303 41.8642 16.2397 40.8487 16.252C40.5576 16.2556 40.2627 16.217 39.9748 16.1682C39.3759 16.0667 39.0628 15.7719 38.966 15.1867C38.9047 14.8161 38.8785 14.4364 38.8755 14.0605C38.8625 12.4248 38.8637 10.7891 38.8602 9.15339C38.8602 9.13634 38.8681 9.11928 38.8767 9.0839C39.4617 9.0839 40.051 9.0839 40.6657 9.0839C40.6657 9.18472 40.6657 9.27215 40.6657 9.35957C40.6657 10.9054 40.6652 12.4513 40.6658 13.9972C40.666 14.4892 40.6901 14.5116 41.191 14.5114C41.7409 14.5112 42.2908 14.5125 42.8408 14.5099C43.1652 14.5084 43.2092 14.4689 43.2097 14.1509C43.2112 13.0185 43.208 11.886 43.2066 10.7266Z" fill="black"/>
<path d="M16.9191 9.83354C17.7544 8.55255 18.9225 7.83437 20.4522 7.71188C21.4499 7.63199 22.4145 7.76901 23.2917 8.27078C23.6112 8.45357 23.8943 8.69759 24.2258 8.93659C23.7549 9.43023 23.3258 9.87999 22.8765 10.351C22.194 9.72014 21.3989 9.44926 20.4814 9.53584C19.9723 9.58388 19.5244 9.77156 19.1392 10.0979C18.3144 10.7966 18.0421 12.106 18.5136 13.1459C18.811 13.8018 19.2986 14.2685 20.0084 14.4838C20.695 14.692 21.3839 14.6162 22.0938 14.4488C22.0938 15.091 22.0938 15.7065 22.0938 16.3246C20.7257 16.8524 18.4884 16.2349 17.3965 15.024C16.1713 13.6651 15.9702 11.5348 16.9191 9.83354Z" fill="black"/>
<path d="M29.1664 6.00083C29.2258 5.99588 29.2853 5.99094 29.3854 6.00217C29.5171 6.02307 29.6083 6.03343 29.6992 6.03163C30.4945 6.01588 31.2897 5.98549 32.0849 5.98451C32.7518 5.98369 33.4188 6.0159 34.0857 6.03572C34.1221 6.0368 34.1578 6.05837 34.2684 6.09528C34.1481 6.12069 34.1079 6.13439 34.0671 6.13701C33.485 6.17441 32.899 6.18054 32.3216 6.25314C31.312 6.38009 30.298 6.50243 29.3036 6.70905C27.8894 7.00292 26.5321 7.48634 25.227 8.10104C25.0314 8.19314 24.8438 8.26238 24.6344 8.15379C24.6344 8.15379 24.6442 8.14889 24.6393 8.1338C24.5919 8.07358 24.5546 8.02184 24.506 7.98429C23.9395 7.54704 23.295 7.25566 22.6107 7.05464C22.3506 6.9782 22.0683 6.97395 21.7961 6.9368C21.7701 6.93688 21.744 6.93697 21.6921 6.91113C21.2159 6.74097 20.7592 6.85464 20.3053 6.85619C20.2883 6.85625 20.2713 6.89369 20.2543 6.91371C20.2287 6.92139 20.2031 6.92906 20.1396 6.92298C19.8156 6.89074 19.5296 6.87227 19.2435 6.85379C19.2435 6.85379 19.2507 6.8519 19.2477 6.83614C19.0376 6.4932 18.8089 6.18833 18.4172 6.05226C18.4172 6.05226 18.4256 6.03539 18.4215 6.02501C18.1976 5.86504 17.9778 5.71543 17.758 5.56582C17.758 5.56582 17.7684 5.55332 17.7622 5.54112C17.3295 5.31269 16.924 5.0276 16.472 4.89548C15.6887 4.6665 14.8795 4.51669 14.0748 4.36638C13.7778 4.31091 13.4629 4.34786 13.1561 4.34265C13.1306 4.34403 13.1051 4.3454 13.0533 4.32212C12.9767 4.2823 12.9267 4.2546 12.8763 4.25379C11.5511 4.23241 10.234 4.29878 8.93997 4.61095C8.87319 4.62706 8.79884 4.61302 8.72801 4.61302C8.76735 4.52867 8.80977 4.49227 8.85865 4.47933C9.78135 4.23516 10.7053 3.99552 11.628 3.7513C12.6658 3.47662 13.7301 3.41774 14.7956 3.39358C15.3882 3.38015 15.9823 3.41782 16.5753 3.44238C17.6955 3.48878 18.7766 3.72895 19.831 4.09418C20.0683 4.17637 20.3044 4.2617 20.5411 4.34559C20.5411 4.34559 20.5349 4.35026 20.5399 4.36547C20.8196 4.54768 21.0943 4.71468 21.369 4.88167C21.369 4.88167 21.3614 4.89576 21.3672 4.90361C21.392 4.91722 21.4109 4.92299 21.4299 4.92875C21.4299 4.92875 21.4219 4.94485 21.4252 4.95642C21.5006 5.01149 21.5726 5.05498 21.6446 5.09846C21.6446 5.09846 21.6371 5.10605 21.6426 5.1165C21.667 5.13344 21.6858 5.13993 21.7046 5.14641C21.7046 5.14641 21.6823 5.15275 21.6926 5.16843C22.0745 5.61769 22.5947 5.78596 23.1235 5.91754C23.447 5.99806 23.7851 6.03806 24.1191 6.05948C24.6252 6.09193 25.1333 6.09235 25.6406 6.10638C25.9197 6.10317 26.1987 6.09994 26.5222 6.11245C27.3924 6.11372 28.2181 6.10044 29.0436 6.08131C29.0852 6.08035 29.1255 6.02882 29.1664 6.00083Z" fill="black"/>
<path d="M15.188 10.7297C14.8122 10.7299 14.4632 10.7415 14.1154 10.726C13.9068 10.7167 13.8523 10.783 13.8536 10.9859C13.8637 12.5956 13.8616 14.2054 13.8627 15.8151C13.863 16.225 13.8621 16.225 13.4411 16.2245C13.0284 16.2239 12.6152 16.2108 12.2032 16.2276C11.9621 16.2374 11.887 16.1618 11.8883 15.9232C11.8976 14.2865 11.8933 12.6498 11.8934 11.0131C11.8934 10.933 11.8934 10.853 11.8934 10.7272C11.496 10.7272 11.115 10.7269 10.734 10.7272C10.0208 10.7279 10.0203 10.7281 10.0178 10.0249C10.0166 9.70234 10.0176 9.37972 10.0176 9.02913C10.137 9.0228 10.2344 9.01318 10.3318 9.01315C12.0376 9.01258 13.7434 9.01828 15.4492 9.00821C15.7153 9.00664 15.8043 9.08531 15.7897 9.34508C15.7695 9.70372 15.7651 10.0655 15.79 10.4235C15.8083 10.6863 15.7046 10.7606 15.4627 10.7314C15.3814 10.7216 15.2978 10.7297 15.188 10.7297Z" fill="black"/>
<path d="M21.0333 20.3204C20.9522 20.3214 20.8935 20.3214 20.766 20.3214C20.865 20.2596 20.9045 20.2274 20.9497 20.2078C22.0749 19.7183 22.7331 18.8496 22.8034 17.6716C22.8856 16.2956 22.8226 14.9112 22.8226 13.5065C22.0176 13.5065 21.2061 13.5065 20.3743 13.5065C20.3743 12.9501 20.3743 12.417 20.3743 11.8678C21.7382 11.8678 23.1081 11.8678 24.5105 11.8678C24.5105 12.1249 24.5106 12.3819 24.5105 12.6389C24.5099 13.8788 24.4873 15.1192 24.5135 16.3586C24.557 18.415 23.2425 20.0618 21.0333 20.3204Z" fill="black"/>
<path d="M5.94494 9.00493C6.94409 9.00535 7.91576 9.01052 8.88732 9.00253C9.10812 9.00071 9.20639 9.05886 9.18562 9.29176C9.16653 9.50576 9.17518 9.72322 9.18632 9.93842C9.19552 10.1162 9.11943 10.1775 8.94458 10.1752C8.36726 10.1674 7.78965 10.1755 7.21249 10.1629C6.76964 10.1532 6.51019 10.2187 6.48546 10.7077C6.4825 10.7663 6.36211 10.8666 6.2951 10.8675C5.35113 10.8794 4.40697 10.8761 3.46288 10.8799C3.3057 10.8805 3.26642 10.803 3.25367 10.6631C3.22171 10.3123 3.0883 10.1845 2.72789 10.1782C2.12311 10.1676 1.5178 10.1635 0.913179 10.1768C0.666664 10.1823 0.586891 10.0972 0.608217 9.86381C0.626137 9.66766 0.626223 9.46726 0.607105 9.27128C0.585745 9.05234 0.670351 8.99866 0.885169 8.9997C2.56256 9.00784 4.24 9.00461 5.94494 9.00493Z" fill="black"/>
<path d="M20.8353 3.67749C20.0273 2.51235 20.574 0.997576 21.8834 0.723576C22.7916 0.533528 23.629 0.956696 23.9662 1.77599C24.311 2.61388 24.0077 3.65967 23.2899 4.10801C22.5187 4.58969 21.5589 4.4545 20.9198 3.77401C20.895 3.74757 20.8718 3.71961 20.8353 3.67749Z" fill="black"/>
<path d="M20.3054 18.5955C20.3054 18.5955 20.2886 18.6095 20.2557 18.608C20.1374 18.6346 20.0513 18.661 19.9665 18.6907C19.265 18.9365 18.5719 19.209 17.8597 19.4201C17.3665 19.5663 16.8498 19.6437 16.3389 19.7236C15.6583 19.8301 14.9734 19.9104 14.2895 19.9955C14.2632 19.9988 14.2285 19.9358 14.1977 19.9037C14.4337 19.8187 14.6698 19.7337 14.9444 19.6413C15.6215 19.4977 16.1846 19.1996 16.7253 18.8535C16.7307 18.85 16.7294 18.8366 16.7313 18.8278C16.7313 18.8278 16.7435 18.8133 16.7741 18.8139C17.0501 18.648 17.2955 18.4815 17.5408 18.3151C17.5408 18.3151 17.5486 18.3285 17.5634 18.3267C17.7182 18.2036 17.858 18.0822 17.9978 17.9609C17.9978 17.9609 17.9965 17.9573 18.0151 17.9565C18.054 17.9326 18.0745 17.9096 18.095 17.8866C18.095 17.8866 18.097 17.8933 18.1127 17.8904C18.2128 17.8031 18.2972 17.7186 18.3817 17.6341C18.3817 17.6341 18.3811 17.6333 18.3987 17.6318C18.4422 17.597 18.468 17.5639 18.4939 17.5307C18.4939 17.5307 18.4926 17.5265 18.5115 17.525C18.5477 17.4986 18.5649 17.4737 18.5821 17.4488C18.5821 17.4488 18.5855 17.4551 18.6008 17.454C18.6485 17.4063 18.6808 17.3596 18.713 17.313C18.713 17.313 18.7114 17.3098 18.73 17.3083C18.7638 17.2814 18.779 17.256 18.7941 17.2306C18.7993 17.2395 18.8045 17.2484 18.8199 17.2446C18.8451 17.2034 18.8601 17.1748 18.875 17.1462C18.875 17.1462 18.8763 17.1477 18.8953 17.1444C19.039 17.1255 19.169 17.0797 19.2875 17.0996C19.6974 17.1686 20.0959 17.3292 20.5238 17.2207C20.584 17.2206 20.6442 17.2206 20.7351 17.245C21.0875 17.2631 21.4096 17.2473 21.731 17.2565C21.8166 17.2589 21.9 17.3379 21.9844 17.3818C21.9844 17.3818 21.977 17.3733 21.9593 17.378C21.8946 17.4514 21.8476 17.5202 21.8006 17.5889C21.8006 17.5889 21.7955 17.5819 21.7811 17.5837C21.7367 17.6291 21.7068 17.6726 21.6768 17.7161C21.6768 17.7161 21.6705 17.7317 21.6443 17.7349C21.5728 17.7818 21.5275 17.8256 21.4821 17.8693C21.4821 17.8693 21.4781 17.8707 21.4605 17.8693C21.3836 17.9241 21.3243 17.9803 21.265 18.0365C21.265 18.0365 21.251 18.0382 21.2418 18.0352C21.2206 18.048 21.2086 18.0638 21.1965 18.0796C21.1965 18.0796 21.1958 18.0742 21.1784 18.0733C21.0611 18.1447 20.9612 18.217 20.8613 18.2893C20.8613 18.2893 20.8605 18.2842 20.8421 18.2852C20.6509 18.3893 20.4781 18.4924 20.3054 18.5955Z" fill="black"/>
<path d="M12.1048 5.56326C12.1475 5.56264 12.1903 5.56201 12.2617 5.58662C12.5314 5.64347 12.7718 5.68085 13.0136 5.70571C14.1 5.81746 15.1454 6.07151 16.1308 6.54559C16.3479 6.65005 16.577 6.73057 16.8005 6.82211C16.8005 6.82211 16.7894 6.83965 16.7987 6.84796C16.8413 6.86497 16.8746 6.87367 16.9078 6.88238C16.9078 6.88238 16.9007 6.88745 16.9065 6.90189C16.954 6.96751 16.9956 7.01868 17.0562 7.0933C16.9692 7.0933 16.915 7.1034 16.8662 7.09169C16.4879 7.00094 16.114 6.88903 15.7321 6.81769C15.4281 6.7609 15.1148 6.75205 14.8057 6.72191C14.7623 6.71903 14.719 6.71614 14.6477 6.68633C14.2724 6.61153 13.9262 6.55223 13.5775 6.51947C13.3108 6.49441 13.0409 6.50291 12.7724 6.49648C12.7461 6.49727 12.7197 6.49807 12.6658 6.47328C12.3056 6.41735 11.9735 6.36638 11.6406 6.3608C10.8647 6.3478 10.0881 6.34537 9.3124 6.36266C9.03329 6.36888 8.75578 6.44388 8.47754 6.48749C8.43531 6.49512 8.39307 6.50276 8.31147 6.4949C7.5348 6.56613 6.79744 6.65247 6.06023 6.74C5.94377 6.75383 5.82796 6.77302 5.71186 6.78973C5.70677 6.76655 5.70168 6.74337 5.69659 6.72019C5.73237 6.7021 5.7663 6.67794 5.80421 6.66683C6.64077 6.42154 7.47076 6.15004 8.31724 5.94363C8.85003 5.81371 9.40832 5.78598 9.95378 5.70355C10.1603 5.67235 10.3628 5.61626 10.5672 5.57152C10.6268 5.56582 10.6865 5.56012 10.7869 5.57071C11.2534 5.57909 11.6791 5.57118 12.1048 5.56326Z" fill="black"/>
<path d="M6.54411 12.7758C6.54414 13.3757 6.54414 13.3766 5.95093 13.3773C5.1365 13.3783 4.322 13.3725 3.50767 13.3816C3.30297 13.3838 3.23629 13.32 3.24496 13.1184C3.25997 12.7691 3.25408 12.4185 3.2433 12.0688C3.23831 11.9066 3.29299 11.8472 3.46103 11.8464C4.38472 11.8419 5.3084 11.8309 6.23201 11.8177C6.45619 11.8145 6.57001 11.8874 6.54763 12.1302C6.52877 12.3349 6.54395 12.5427 6.54411 12.7758Z" fill="black"/>
<path d="M32.5183 4.2134C33.4501 4.38698 34.3407 4.61604 35.2005 4.94946C31.7831 4.23382 28.3402 4.1307 24.8743 4.471C27.3989 3.91063 29.9361 3.7454 32.5183 4.2134Z" fill="black"/>
<path d="M0.0747108 13.8077C0.0401921 13.4812 0.0197127 13.1623 0.0201586 12.8434C0.0202128 12.8044 0.13131 12.734 0.192887 12.7319C0.522019 12.7204 0.85182 12.7293 1.18128 12.7243C1.32533 12.7221 1.37158 12.7845 1.37077 12.9196C1.36646 13.6377 1.36423 14.3558 1.36984 15.0738C1.37124 15.2524 1.29643 15.3191 1.12334 15.3051C1.0597 15.3 0.994446 15.2983 0.931327 15.306C0.731043 15.3305 0.657361 15.2591 0.663817 15.0515C0.678863 14.5678 0.668616 14.0833 0.654217 13.5837C0.576425 13.9421 0.286737 13.757 0.0747108 13.8077Z" fill="black"/>
<path d="M9.13916 13.481C9.1369 14.0129 9.12133 14.5247 9.13993 15.0352C9.15117 15.3438 8.9549 15.2937 8.76336 15.3083C8.54324 15.325 8.4596 15.2599 8.46146 15.0279C8.46692 14.3471 8.44718 13.666 8.43623 12.9851C8.43356 12.819 8.4761 12.7121 8.68319 12.7211C8.97531 12.7337 9.26898 12.7338 9.56099 12.7195C9.76132 12.7098 9.81693 12.7912 9.80496 12.9716C9.7937 13.1413 9.80669 13.3124 9.80374 13.4827C9.8011 13.635 9.85987 13.8197 9.57981 13.805C9.36629 13.7937 9.13507 13.8435 9.18831 13.5077C9.19192 13.485 9.17463 13.459 9.16706 13.4346C9.15813 13.4432 9.14919 13.4517 9.13916 13.481Z" fill="black"/>
<path d="M7.1143 14.288C7.11411 13.8321 7.11915 13.4031 7.11124 12.9742C7.1079 12.7937 7.16694 12.7152 7.36278 12.7194C8.11577 12.7356 7.96635 12.6306 7.97534 13.3036C7.98301 13.8771 7.97374 14.4508 7.98631 15.0242C7.99085 15.2315 7.92499 15.3132 7.70588 15.3077C7.02236 15.2904 7.11601 15.3808 7.11355 14.7451C7.11299 14.6017 7.114 14.4583 7.1143 14.288Z" fill="black"/>
<path d="M2.64628 13.7483C2.64689 14.2058 2.64258 14.6363 2.6505 15.0667C2.65369 15.24 2.58775 15.3086 2.40974 15.3045C1.75557 15.2897 1.83379 15.3867 1.83363 14.7551C1.83348 14.1901 1.84152 13.6248 1.82476 13.0602C1.81742 12.8131 1.87578 12.7031 2.1551 12.7156C2.73745 12.7417 2.63158 12.6574 2.64528 13.2102C2.6495 13.3805 2.64615 13.551 2.64628 13.7483Z" fill="black"/>
<path d="M37.002 18.9021C36.926 18.9122 36.871 18.9157 36.8163 18.9131C36.7908 18.9119 36.7659 18.899 36.7147 18.8836C36.7147 18.5089 36.7147 18.1299 36.7147 17.6732C36.5171 17.9754 36.3636 18.2103 36.176 18.4972C36.0115 18.2375 35.8768 18.0249 35.7421 17.8124C35.7234 17.8168 35.7047 17.8212 35.686 17.8256C35.686 18.1843 35.686 18.5431 35.686 18.912C35.5617 18.912 35.4724 18.912 35.3633 18.912C35.3633 18.3109 35.3633 17.7132 35.3633 17.1024C35.5546 17.0174 35.6844 17.086 35.7858 17.2781C35.9031 17.5005 36.0429 17.7116 36.1932 17.9612C36.3236 17.7398 36.4559 17.5481 36.5533 17.3407C36.651 17.1325 36.7784 17.0269 37.0231 17.1092C37.0231 17.6992 37.0231 18.2961 37.002 18.9021Z" fill="black"/>
<path d="M20.531 4.33057C20.3044 4.2617 20.0683 4.17637 19.831 4.09418C18.7766 3.72895 17.6955 3.48878 16.5753 3.44238C15.9823 3.41782 15.3882 3.38015 14.7956 3.39358C13.7301 3.41774 12.6658 3.47662 11.628 3.7513C10.7053 3.99552 9.78135 4.23516 8.85865 4.47933C8.80977 4.49227 8.76735 4.52867 8.72801 4.61302C8.79884 4.61302 8.87319 4.62706 8.93997 4.61095C10.234 4.29878 11.5511 4.23241 12.8763 4.25379C12.9267 4.2546 12.9767 4.2823 13.0349 4.3163C12.084 4.3789 11.1184 4.36921 10.168 4.4825C9.3322 4.58213 8.51348 4.81954 7.6871 4.99566C7.59115 5.01611 7.49458 5.03371 7.37486 5.00753C7.51999 4.94267 7.6636 4.87429 7.81047 4.81347C10.7314 3.60407 13.7644 3.07424 16.9313 3.38889C18.1753 3.51249 19.3951 3.74372 20.531 4.33057ZM8.3715 4.65759C8.35309 4.67886 8.33467 4.70012 8.31626 4.72139C8.34916 4.72285 8.38207 4.72432 8.41497 4.72578C8.41025 4.70003 8.40553 4.67427 8.3715 4.65759ZM8.13734 4.77535C8.1418 4.76776 8.14625 4.76017 8.1507 4.75257C8.14339 4.75583 8.13609 4.75909 8.13734 4.77535Z" fill="black"/>
<path d="M24.6427 8.17004C24.8438 8.26238 25.0314 8.19314 25.227 8.10104C26.5321 7.48634 27.8894 7.00292 29.3036 6.70905C30.298 6.50243 31.312 6.38009 32.3216 6.25314C32.899 6.18054 33.485 6.17441 34.0671 6.13701C34.1079 6.13439 34.1481 6.12069 34.2684 6.09528C34.1578 6.05837 34.1221 6.0368 34.0857 6.03572C33.4188 6.0159 32.7518 5.98369 32.0849 5.98451C31.2897 5.98549 30.4945 6.01588 29.6992 6.03163C29.6083 6.03343 29.5171 6.02307 29.4076 6.00584C31.4849 5.91534 33.5811 5.82473 35.6673 6.14092C35.6998 6.14585 35.732 6.15256 35.7567 6.10383C34.3464 6.20113 32.9314 6.25633 31.5268 6.40539C29.2892 6.64283 27.1533 7.26186 25.1263 8.22828C24.9537 8.31057 24.7924 8.38864 24.6427 8.17004Z" fill="black"/>
<path d="M27.4856 18.0748C27.5545 18.0177 27.6199 17.9598 27.6916 17.9509C27.8259 17.9343 27.9638 17.9461 28.1341 17.9461C28.1341 18.1043 28.1341 18.2539 28.1341 18.4035C28.1341 18.5466 28.1341 18.6897 28.1341 18.8279C27.6215 19.0582 27.015 18.98 26.7264 18.6527C26.4632 18.3543 26.4426 17.8086 26.6818 17.4685C26.933 17.1114 27.5074 16.9779 28.0528 17.1489C28.0528 17.2524 28.0528 17.3553 28.0528 17.4341C27.8178 17.4207 27.5976 17.3754 27.3874 17.4031C26.974 17.4576 26.7703 17.7895 26.8644 18.1946C26.9433 18.5344 27.3567 18.7727 27.7056 18.6392C27.7925 18.6059 27.8146 18.4095 27.8484 18.3307C27.723 18.1598 27.4739 18.368 27.4856 18.0748Z" fill="black"/>
<path d="M1.36968 11.269C1.37016 11.547 1.36489 11.7987 1.3712 12.0501C1.37474 12.191 1.31555 12.2404 1.17567 12.2378C0.855095 12.2318 0.534217 12.2301 0.213705 12.2371C0.0616083 12.2405 -0.00984012 12.19 0.00550317 12.0358C0.0117039 11.9735 0.0143392 11.9091 0.00535161 11.8474C-0.025664 11.6348 0.0799307 11.577 0.275469 11.5986C0.3734 11.6095 0.4736 11.6005 0.623389 11.6005C0.623389 11.3842 0.636858 11.1909 0.619873 11.0003C0.60004 10.7777 0.654862 10.6692 0.913419 10.6792C1.47096 10.7007 1.36177 10.6514 1.36968 11.269Z" fill="black"/>
<path d="M8.4303 11.4287C8.43007 11.3303 8.42985 11.2586 8.42953 11.1869C8.42714 10.6455 8.4269 10.6499 8.9688 10.6781C9.11808 10.6858 9.18723 10.736 9.18243 10.8858C9.17698 11.0559 9.18877 11.2268 9.17874 11.3965C9.16824 11.574 9.2202 11.6531 9.42268 11.6497C9.81823 11.6431 9.85482 11.6907 9.7935 12.0798C9.78418 12.139 9.69098 12.228 9.63351 12.2303C9.28682 12.2443 8.93892 12.2443 8.59226 12.2297C8.53661 12.2274 8.44473 12.132 8.43913 12.0732C8.41966 11.8688 8.43078 11.6616 8.4303 11.4287Z" fill="black"/>
<path d="M7.11616 12.106C7.11377 11.7051 7.11882 11.3286 7.10948 10.9524C7.10486 10.7664 7.15229 10.6746 7.36866 10.678C8.09836 10.6894 7.95809 10.6185 7.97527 11.2555C7.98227 11.5152 7.9709 11.7754 7.97962 12.0351C7.98472 12.1872 7.92514 12.2456 7.77196 12.2377C7.61703 12.2297 7.46029 12.2462 7.30646 12.2312C7.24077 12.2248 7.18043 12.1656 7.11616 12.106Z" fill="black"/>
<path d="M1.82909 11.9056C1.8289 11.5652 1.8351 11.2505 1.8261 10.9362C1.82099 10.7575 1.87512 10.6799 2.07417 10.6767C2.64252 10.6674 2.64312 10.6594 2.64632 11.2227C2.64791 11.5013 2.65651 11.7806 2.63825 12.058C2.63408 12.1215 2.53748 12.2234 2.47429 12.2306C2.2766 12.2531 2.07454 12.2388 1.84535 12.2388C1.8392 12.1224 1.83416 12.0269 1.82909 11.9056Z" fill="black"/>
<path d="M10.543 5.56698C10.3628 5.61626 10.1603 5.67235 9.95378 5.70355C9.40832 5.78598 8.85003 5.81371 8.31724 5.94363C7.47076 6.15004 6.64077 6.42154 5.80421 6.66683C5.7663 6.67794 5.73237 6.7021 5.69659 6.72019C5.70168 6.74337 5.70677 6.76655 5.71186 6.78973C5.82796 6.77302 5.94377 6.75383 6.06023 6.74C6.79744 6.65247 7.5348 6.56613 8.28997 6.49189C6.87307 6.63185 5.46194 6.86785 4.10634 7.36808C3.97065 7.41815 3.81886 7.42626 3.72169 7.44484C4.20903 7.23415 4.73637 6.98417 5.28065 6.77695C5.84242 6.56308 6.41481 6.37111 6.99335 6.20591C7.56302 6.04325 8.14157 5.9013 8.72481 5.79602C9.31732 5.68906 9.92032 5.63799 10.543 5.56698ZM5.53389 6.8739C5.54079 6.86817 5.54882 6.86331 5.55427 6.85647C5.55954 6.84988 5.56215 6.84125 5.56593 6.83351C5.49062 6.83351 5.41531 6.83351 5.34 6.83351C5.34122 6.85132 5.34245 6.86913 5.34367 6.88694C5.39618 6.88694 5.44869 6.88694 5.53389 6.8739Z" fill="black"/>
<path d="M31.5022 18.3504C31.3976 18.101 31.3006 17.8723 31.1867 17.652C31.0921 17.4689 30.9776 17.2955 30.8623 17.1016C31.0695 17.0248 31.2236 17.0427 31.3326 17.2547C31.4341 17.4518 31.5563 17.6386 31.685 17.8563C31.8108 17.6561 31.9419 17.484 32.0326 17.2934C32.1337 17.0811 32.2808 17.0327 32.5128 17.1018C32.2186 17.6778 31.645 18.1513 31.866 18.9117C31.7204 18.9117 31.6255 18.9117 31.5024 18.9117C31.5024 18.7313 31.5024 18.5531 31.5022 18.3504Z" fill="black"/>
<path d="M14.1824 19.8966C14.2285 19.9358 14.2632 19.9988 14.2895 19.9955C14.9734 19.9104 15.6583 19.8301 16.3389 19.7236C16.8498 19.6437 17.3665 19.5663 17.8597 19.4201C18.5719 19.209 19.265 18.9365 19.9665 18.6907C20.0513 18.661 20.1374 18.6346 20.2447 18.6084C19.385 19.0873 18.4366 19.3919 17.455 19.5731C16.3937 19.7689 15.3213 19.9077 14.2518 20.0585C14.0656 20.0847 13.8702 20.0431 13.679 20.0427C13.6384 20.0427 13.5977 20.0857 13.5538 20.0882C13.7583 20.022 13.9627 19.9557 14.1824 19.8966Z" fill="black"/>
<path d="M13.1785 4.34901C13.4629 4.34786 13.7778 4.31091 14.0748 4.36638C14.8795 4.51669 15.6887 4.6665 16.472 4.89548C16.924 5.0276 17.3295 5.31269 17.7582 5.54817C16.3589 4.73547 14.8042 4.4573 13.1785 4.34901Z" fill="black"/>
<path d="M16.7904 6.80757C16.577 6.73057 16.3479 6.65005 16.1308 6.54559C15.1454 6.07151 14.1 5.81746 13.0136 5.70571C12.7718 5.68085 12.5314 5.64347 12.282 5.59367C13.8697 5.64722 15.3861 6.00225 16.7904 6.80757Z" fill="black"/>
<path d="M8.50205 6.49227C8.7558 6.44388 9.03329 6.36888 9.3124 6.36266C10.0881 6.34537 10.8647 6.3478 11.6406 6.3608C11.9735 6.36638 12.3057 6.41735 12.6477 6.46505C11.4443 6.47763 10.2314 6.47171 9.01849 6.46948C8.85452 6.46918 8.69052 6.4874 8.50205 6.49227Z" fill="black"/>
<path d="M25.6165 6.10028C25.1333 6.09236 24.6252 6.09193 24.1191 6.05948C23.7851 6.03806 23.447 5.99806 23.1235 5.91754C22.5947 5.78596 22.0745 5.61769 21.7037 5.16474C22.6215 5.92025 23.7625 5.95549 24.8795 6.06579C25.1157 6.08912 25.3546 6.08542 25.6165 6.10028Z" fill="black"/>
<path d="M14.826 6.72925C15.1148 6.75205 15.4281 6.7609 15.7321 6.81769C16.114 6.88903 16.4879 7.00094 16.8662 7.09169C16.915 7.1034 16.9692 7.0933 17.0562 7.0933C16.9956 7.01868 16.954 6.96751 16.9085 6.89804C17.1496 7.01964 17.3946 7.15954 17.6395 7.29945C17.6301 7.3062 17.6208 7.31295 17.6114 7.3197C16.6897 7.12533 15.7681 6.93096 14.826 6.72925Z" fill="black"/>
<path d="M21.8153 6.94451C22.0683 6.97395 22.3506 6.9782 22.6107 7.05464C23.295 7.25566 23.9395 7.54704 24.506 7.98429C24.5546 8.02184 24.5918 8.07358 24.6357 8.13784C23.7972 7.54428 22.8749 7.11615 21.8153 6.94451Z" fill="black"/>
<path d="M29.1412 5.99599C29.1255 6.02882 29.0852 6.08035 29.0436 6.08131C28.2181 6.10044 27.3923 6.11372 26.5478 6.11643C27.3914 6.06684 28.2537 6.029 29.1412 5.99599Z" fill="black"/>
<path d="M16.7118 18.8304C16.7294 18.8366 16.7307 18.85 16.7253 18.8535C16.1846 19.1996 15.6215 19.4977 14.9618 19.6345C15.5244 19.3676 16.1084 19.1003 16.7118 18.8304Z" fill="black"/>
<path d="M12.7949 6.50347C13.0409 6.50291 13.3108 6.49441 13.5775 6.51947C13.9262 6.55223 14.2725 6.61153 14.6289 6.67536C14.0312 6.63103 13.4243 6.57074 12.7949 6.50347Z" fill="black"/>
<path d="M20.2786 6.91846C20.2713 6.89369 20.2883 6.85625 20.3053 6.85619C20.7592 6.85464 21.2158 6.74097 21.6743 6.90314C21.2224 6.92178 20.7626 6.92249 20.2786 6.91846Z" fill="black"/>
<path d="M20.502 17.2142C20.096 17.3292 19.6974 17.1686 19.2875 17.0996C19.169 17.0797 19.039 17.1255 18.8945 17.1438C18.9426 16.9877 19.0479 16.9625 19.2222 16.9987C19.6379 17.0852 20.0604 17.14 20.502 17.2142Z" fill="black"/>
<path d="M21.9999 17.3724C21.9 17.3379 21.8166 17.2589 21.731 17.2565C21.4096 17.2473 21.0875 17.2631 20.7567 17.2517C21.1968 17.2141 21.6459 17.1943 22.1261 17.1731C22.0823 17.2482 22.0489 17.3056 21.9999 17.3724Z" fill="black"/>
<path d="M18.4255 6.06791C18.8089 6.18833 19.0376 6.4932 19.247 6.83972C18.9774 6.60057 18.7056 6.34207 18.4255 6.06791Z" fill="black"/>
<path d="M12.0827 5.55705C11.6791 5.57118 11.2534 5.57909 10.8092 5.57482C11.2139 5.5587 11.6373 5.55476 12.0827 5.55705Z" fill="black"/>
<path d="M21.3606 4.86608C21.0943 4.71468 20.8196 4.54768 20.5412 4.36185C20.809 4.51218 21.0806 4.68134 21.3606 4.86608Z" fill="black"/>
<path d="M19.2496 6.87044C19.5296 6.87227 19.8156 6.89074 20.1194 6.92076C19.9789 6.96187 19.8146 6.97418 19.6641 7.02542C19.4788 7.08852 19.3542 7.04032 19.2496 6.87044Z" fill="black"/>
<path d="M17.5221 18.3197C17.2955 18.4815 17.0501 18.648 16.7837 18.8132C17.0096 18.6494 17.2565 18.4869 17.5221 18.3197Z" fill="black"/>
<path d="M17.7676 5.58061C17.9778 5.71543 18.1976 5.86504 18.4184 6.03389C18.2053 5.90056 17.9912 5.74798 17.7676 5.58061Z" fill="black"/>
<path d="M20.3247 18.5939C20.4781 18.4924 20.6508 18.3893 20.8443 18.2867C20.6913 18.3888 20.5177 18.4906 20.3247 18.5939Z" fill="black"/>
<path d="M17.9802 17.9665C17.858 18.0822 17.7182 18.2036 17.5584 18.3208C17.6798 18.2018 17.8211 18.087 17.9802 17.9665Z" fill="black"/>
<path d="M20.8803 18.2871C20.9612 18.217 21.061 18.1447 21.1809 18.0745C21.1004 18.146 20.9998 18.2154 20.8803 18.2871Z" fill="black"/>
<path d="M18.3646 17.6399C18.2972 17.7186 18.2128 17.8031 18.1092 17.8899C18.1758 17.81 18.2617 17.7278 18.3646 17.6399Z" fill="black"/>
<path d="M21.637 5.08295C21.5726 5.05498 21.5006 5.01149 21.4295 4.9482C21.4968 4.97475 21.5631 5.02109 21.637 5.08295Z" fill="black"/>
<path d="M21.8175 17.5829C21.8477 17.5202 21.8946 17.4514 21.9615 17.3832C21.9323 17.4481 21.8833 17.5125 21.8175 17.5829Z" fill="black"/>
<path d="M21.4979 17.8656C21.5275 17.8256 21.5728 17.7818 21.6359 17.7364C21.607 17.777 21.5604 17.8194 21.4979 17.8656Z" fill="black"/>
<path d="M21.2816 18.0307C21.3243 17.9803 21.3836 17.9241 21.4619 17.8677C21.42 17.92 21.3592 17.9724 21.2816 18.0307Z" fill="black"/>
<path d="M18.6972 17.3185C18.6808 17.3596 18.6485 17.4063 18.5974 17.4529C18.6128 17.4099 18.647 17.367 18.6972 17.3185Z" fill="black"/>
<path d="M21.6912 17.7102C21.7068 17.6726 21.7367 17.6291 21.7846 17.5863C21.7702 17.6261 21.7379 17.6651 21.6912 17.7102Z" fill="black"/>
<path d="M18.4785 17.5353C18.468 17.5639 18.4422 17.597 18.3991 17.6321C18.409 17.6026 18.4361 17.5712 18.4785 17.5353Z" fill="black"/>
<path d="M18.5675 17.4537C18.5649 17.4737 18.5477 17.4986 18.5136 17.5259C18.5154 17.505 18.5342 17.4818 18.5675 17.4537Z" fill="black"/>
<path d="M16.899 6.86868C16.8746 6.87367 16.8414 6.86497 16.8036 6.83875C16.8294 6.83249 16.8598 6.84374 16.899 6.86868Z" fill="black"/>
<path d="M18.8606 17.1516C18.8601 17.1748 18.8452 17.2034 18.8126 17.2312C18.812 17.2059 18.8291 17.1814 18.8606 17.1516Z" fill="black"/>
<path d="M18.0794 17.8899C18.0746 17.9096 18.0541 17.9326 18.0168 17.9574C18.0213 17.9372 18.0426 17.9152 18.0794 17.8899Z" fill="black"/>
<path d="M18.7805 17.2366C18.779 17.256 18.7638 17.2814 18.7316 17.3091C18.732 17.2884 18.7494 17.2654 18.7805 17.2366Z" fill="black"/>
<path d="M17.6936 7.40837C17.6926 7.40825 17.6947 7.4085 17.6936 7.40837V7.40837Z" fill="black"/>
<path d="M21.2109 18.0772C21.2086 18.0638 21.2206 18.048 21.2487 18.0336C21.2516 18.0482 21.2385 18.0615 21.2109 18.0772Z" fill="black"/>
<path d="M21.4235 4.91619C21.4109 4.92299 21.392 4.91722 21.3698 4.89607C21.3835 4.88834 21.4004 4.89598 21.4235 4.91619Z" fill="black"/>
<path d="M21.6985 5.13356C21.6858 5.13993 21.667 5.13344 21.6447 5.11166C21.6584 5.10447 21.6754 5.11259 21.6985 5.13356Z" fill="black"/>
<path d="M8.38617 4.65306C8.40555 4.67427 8.41025 4.70003 8.41497 4.72578C8.38207 4.72432 8.34916 4.72285 8.31626 4.72139C8.33468 4.70012 8.35311 4.67886 8.38617 4.65306Z" fill="black"/>
<path d="M8.13304 4.76886C8.13606 4.7591 8.14339 4.75583 8.1507 4.75257C8.14625 4.76017 8.14177 4.76776 8.13304 4.76886Z" fill="black"/>
<path d="M5.51759 6.88042C5.44873 6.88694 5.39618 6.88694 5.34367 6.88694C5.34245 6.86913 5.34122 6.85132 5.34 6.83351C5.41531 6.83351 5.49062 6.83351 5.56593 6.83351C5.56215 6.84125 5.55954 6.84988 5.55427 6.85647C5.54882 6.86331 5.54083 6.86817 5.51759 6.88042Z" fill="black"/>
<path d="M17.1991 7.14012C17.1968 7.14127 17.2013 7.13898 17.1991 7.14012V7.14012Z" fill="black"/>
</svg>
